<svg width="50" height="53" viewBox="0 0 50 53" fill="none" xmlns="http://www.w3.org/2000/svg">
<path d="M25.0001 0.0739746C11.1896 0.0739746 0.00012207 11.8437 0.00012207 26.3703C0.00012207 40.8969 11.1896 52.6666 25.0001 52.6666C38.8105 52.6666 50 40.8969 50 26.3703C50 11.8437 38.8105 0.0739746 25.0001 0.0739746ZM27.9134 15.3004L20.3025 22.9772H38.7097C40.0504 22.9772 41.1291 24.1118 41.1291 25.522V27.2186C41.1291 28.6288 40.0504 29.7634 38.7097 29.7634H20.3025L27.9134 37.4402C28.8912 38.4263 28.9113 40.0698 27.9537 41.0772L26.8448 42.2329C25.8972 43.2296 24.365 43.2296 23.4275 42.2329L10.0505 28.1729C9.10292 27.1762 9.10292 25.5644 10.0505 24.5783L23.4275 10.4971C24.3751 9.50036 25.9073 9.50036 26.8448 10.4971L27.9537 11.6528C28.9113 12.6708 28.8912 14.3143 27.9134 15.3004Z" fill="#E3B749"/>
</svg>
