<svg width="50" height="53" viewBox="0 0 50 53" fill="none" xmlns="http://www.w3.org/2000/svg">
<path d="M24.9999 0.0739746C38.8104 0.0739746 49.9999 11.8437 49.9999 26.3703C49.9999 40.8969 38.8104 52.6666 24.9999 52.6666C11.1895 52.6666 0 40.8969 0 26.3703C0 11.8437 11.1895 0.0739746 24.9999 0.0739746ZM22.0866 15.3004L29.6975 22.9772H11.2903C9.94957 22.9772 8.87095 24.1118 8.87095 25.522V27.2186C8.87095 28.6288 9.94957 29.7634 11.2903 29.7634H29.6975L22.0866 37.4402C21.1088 38.4263 21.0887 40.0698 22.0463 41.0772L23.1552 42.2329C24.1028 43.2296 25.635 43.2296 26.5725 42.2329L39.9495 28.1729C40.8971 27.1762 40.8971 25.5644 39.9495 24.5783L26.5725 10.4971C25.6249 9.50036 24.0927 9.50036 23.1552 10.4971L22.0463 11.6528C21.0887 12.6708 21.1088 14.3143 22.0866 15.3004Z" fill="#E3B749"/>
</svg>
