<svg width="45" height="49" viewBox="0 0 45 49" fill="none" xmlns="http://www.w3.org/2000/svg">
<path d="M41.7857 18.9435H27.3214V3.50141C27.3214 1.60653 25.882 0.0698242 24.1071 0.0698242H20.8929C19.118 0.0698242 17.6786 1.60653 17.6786 3.50141V18.9435H3.21429C1.4394 18.9435 0 20.4802 0 22.3751V25.8067C0 27.7016 1.4394 29.2383 3.21429 29.2383H17.6786V44.6804C17.6786 46.5753 19.118 48.112 20.8929 48.112H24.1071C25.882 48.112 27.3214 46.5753 27.3214 44.6804V29.2383H41.7857C43.5606 29.2383 45 27.7016 45 25.8067V22.3751C45 20.4802 43.5606 18.9435 41.7857 18.9435Z" fill="#1D1B6C"/>
</svg>
