<svg width="64" height="56" viewBox="0 0 64 56" fill="none" xmlns="http://www.w3.org/2000/svg">
<path d="M31.1515 14.5279L10.6675 33.5112V53.9998C10.6675 54.5303 10.8548 55.039 11.1882 55.4142C11.5215 55.7893 11.9737 56 12.4452 56L24.8953 55.9637C25.3652 55.9611 25.8151 55.7492 26.1465 55.3744C26.478 54.9995 26.6641 54.4923 26.6641 53.9635V41.9984C26.6641 41.4679 26.8513 40.9592 27.1847 40.5841C27.5181 40.209 27.9702 39.9982 28.4417 39.9982H35.5523C36.0237 39.9982 36.4759 40.209 36.8092 40.5841C37.1426 40.9592 37.3299 41.4679 37.3299 41.9984V53.9548C37.3292 54.218 37.3746 54.4787 37.4636 54.7221C37.5526 54.9655 37.6834 55.1868 37.8486 55.3732C38.0137 55.5596 38.2099 55.7075 38.426 55.8084C38.642 55.9093 38.8736 55.9612 39.1075 55.9612L51.5532 56C52.0247 56 52.4769 55.7893 52.8102 55.4142C53.1436 55.039 53.3309 54.5303 53.3309 53.9998V33.4975L32.8514 14.5279C32.6106 14.3095 32.3107 14.1904 32.0014 14.1904C31.6922 14.1904 31.3923 14.3095 31.1515 14.5279ZM63.5079 27.4306L54.2197 18.8158V1.50017C54.2197 1.1023 54.0792 0.720725 53.8292 0.439389C53.5792 0.158053 53.2401 0 52.8865 0H46.6647C46.3111 0 45.972 0.158053 45.722 0.439389C45.472 0.720725 45.3315 1.1023 45.3315 1.50017V10.5774L35.3845 1.3689C34.4299 0.485028 33.2321 0.00176688 31.9959 0.00176688C30.7596 0.00176688 29.5618 0.485028 28.6072 1.3689L0.48385 27.4306C0.348847 27.5561 0.237153 27.7104 0.15515 27.8845C0.0731476 28.0587 0.0224436 28.2493 0.00593527 28.4455C-0.010573 28.6417 0.00743794 28.8396 0.058939 29.028C0.11044 29.2164 0.194422 29.3915 0.306086 29.5433L3.1392 33.4187C3.25056 33.5711 3.38753 33.6972 3.54228 33.79C3.69702 33.8827 3.8665 33.9402 4.04101 33.9591C4.21552 33.978 4.39163 33.958 4.55927 33.9003C4.72691 33.8425 4.88277 33.7481 5.01795 33.6225L31.1515 9.4023C31.3923 9.18393 31.6922 9.06485 32.0014 9.06485C32.3107 9.06485 32.6106 9.18393 32.8514 9.4023L58.986 33.6225C59.121 33.7481 59.2766 33.8426 59.444 33.9006C59.6114 33.9585 59.7873 33.9788 59.9617 33.9602C60.136 33.9417 60.3054 33.8846 60.4602 33.7923C60.615 33.7001 60.7521 33.5744 60.8636 33.4225L63.6968 29.547C63.8083 29.3943 63.8919 29.2183 63.9428 29.0291C63.9937 28.8399 64.0109 28.6413 63.9933 28.4446C63.9758 28.2479 63.9239 28.0571 63.8405 27.8831C63.7572 27.7091 63.6442 27.5553 63.5079 27.4306Z" fill="#1D1B6C"/>
</svg>
