<svg width="42" height="30" viewBox="0 0 42 30" fill="none" xmlns="http://www.w3.org/2000/svg">
<path d="M41.0428 2.03437C41.3313 0.8625 41.0428 0 39.655 0H35.0626C33.8931 0 33.3551 0.740625 33.0666 1.56562C33.0666 1.56562 30.7275 8.41875 27.4216 12.8625C26.3535 14.1469 25.8623 14.5594 25.2775 14.5594C24.989 14.5594 24.5446 14.1469 24.5446 12.975V2.03437C24.5446 0.628125 24.2171 0 23.2503 0H16.0304C15.2975 0 14.8609 0.65625 14.8609 1.26562C14.8609 2.59687 16.5138 2.90625 16.6853 6.65625V14.7938C16.6853 16.575 16.4202 16.9031 15.8355 16.9031C14.2761 16.9031 10.4868 10.0219 8.24131 2.14688C7.78909 0.61875 7.34466 0 6.16733 0H1.57497C0.265094 0 0 0.740625 0 1.56562C0 3.02812 1.55938 10.2938 7.2589 19.8938C11.056 26.4469 16.4046 30 21.2699 30C24.1937 30 24.5524 29.2125 24.5524 27.8531C24.5524 21.5906 24.2873 21 25.7531 21C26.4314 21 27.601 21.4125 30.3299 24.5719C33.4486 28.3219 33.9632 30 35.7097 30H40.3021C41.612 30 42.2747 29.2125 41.8927 27.6562C41.0194 24.3844 35.1172 17.6531 34.8521 17.2031C34.1737 16.1531 34.3687 15.6844 34.8521 14.7469C34.8599 14.7375 40.4658 5.25 41.0428 2.03437Z" fill="#1D1B6C"/>
</svg>
