<svg width="50" height="50" viewBox="0 0 50 50" fill="none" xmlns="http://www.w3.org/2000/svg">
<path d="M25 0C11.1895 0 0 11.1895 0 25C0 38.8105 11.1895 50 25 50C38.8105 50 50 38.8105 50 25C50 11.1895 38.8105 0 25 0ZM27.9133 14.4758L20.3024 21.7742H38.7097C40.0504 21.7742 41.129 22.8528 41.129 24.1935V25.8065C41.129 27.1472 40.0504 28.2258 38.7097 28.2258H20.3024L27.9133 35.5242C28.8911 36.4617 28.9113 38.0242 27.9536 38.9819L26.8448 40.0806C25.8972 41.0282 24.3649 41.0282 23.4274 40.0806L10.0504 26.7137C9.10283 25.7661 9.10283 24.2339 10.0504 23.2964L23.4274 9.90927C24.375 8.96169 25.9073 8.96169 26.8448 9.90927L27.9536 11.0081C28.9113 11.9758 28.8911 13.5383 27.9133 14.4758Z" fill="#1D1B6C"/>
</svg>
