<svg width="136" height="81" viewBox="0 0 136 81" fill="none" xmlns="http://www.w3.org/2000/svg">
<path d="M131.439 40.0652C130.69 55.9444 127.484 64.7121 119.479 69.8436C115.271 72.5416 109.356 74.4957 100.908 75.5618C92.4686 76.6266 81.7746 76.7736 68.2121 76.0608C54.5629 75.3433 43.7206 74.4537 35.0934 73.0557C26.4349 71.6527 20.3362 69.7851 15.9929 67.299C11.7976 64.8976 9.14167 61.8662 7.4051 57.763C5.59922 53.4959 4.70173 47.8638 4.51606 40.1687C4.33913 32.8356 5.62885 27.1916 8.03427 22.7918C10.4226 18.4232 14.0854 14.9599 19.2078 12.2484C29.7015 6.69355 45.8982 4.50002 67.9759 4.5C90.0926 4.49998 106.478 6.52034 117.068 11.9984C122.227 14.6672 125.883 18.096 128.223 22.457C130.581 26.8531 131.794 32.5562 131.439 40.0652Z" fill="white" stroke="#6A8CE0" stroke-width="9"/>
</svg>
