<svg width="81" height="49" viewBox="0 0 81 49" fill="none" xmlns="http://www.w3.org/2000/svg">
<path d="M76.4659 23.7766C76.0255 33.1113 74.1559 37.516 70.1783 40.0659C67.9831 41.4732 64.7544 42.582 59.8715 43.1982C54.9985 43.813 48.7505 43.9055 40.7219 43.4835C32.6064 43.057 26.2295 42.5309 21.1923 41.7147C16.1238 40.8934 12.7399 39.8256 10.4292 38.503C8.26659 37.2652 6.9612 35.7608 6.08633 33.6936C5.14215 31.4627 4.61751 28.3756 4.50904 23.8801C4.4093 19.7465 5.13932 16.7204 6.38192 14.4475C7.60741 12.2059 9.50424 10.3787 12.2913 8.9034C18.1145 5.82093 27.3631 4.50001 40.4857 4.5C53.6472 4.49999 63.0075 5.72046 68.8883 8.7625C71.6929 10.2133 73.5731 12.015 74.7642 14.2354C75.9742 16.4909 76.6658 19.5398 76.4659 23.7766Z" fill="white" stroke="#6A8CE0" stroke-width="9"/>
</svg>
