<svg width="694" height="452" viewBox="0 0 694 452" fill="none" xmlns="http://www.w3.org/2000/svg">
<path d="M689.169 224.563C685.281 314.677 668.452 372.886 619.506 407.2C570.105 441.832 486.841 453.052 347.135 445.022C277.346 441.01 221.219 436.005 176.191 428.026C131.138 420.042 97.533 409.136 72.5911 393.524C23.312 362.679 6.52752 312.58 4.58756 224.658C3.62492 181.03 10.6124 145.678 24.8747 117.15C39.1137 88.669 60.7396 66.7142 89.5272 50.0501C147.352 16.5775 233.966 4.50012 346.877 4.5C459.832 4.49988 547.416 15.5822 605.727 48.5671C634.744 64.9812 656.463 86.7966 670.508 115.427C684.579 144.109 691.095 179.935 689.169 224.563Z" fill="white" stroke="#6A8CE0" stroke-width="9"/>
</svg>
