<svg width="81" height="92" viewBox="0 0 81 92" fill="none" xmlns="http://www.w3.org/2000/svg">
<path d="M40.4163 28.75C49.7219 28.75 57.2591 22.3172 57.2591 14.375C57.2591 6.43281 49.7219 0 40.4163 0C31.1106 0 23.5734 6.43281 23.5734 14.375C23.5734 22.3172 31.1106 28.75 40.4163 28.75ZM29.1737 73.4562L34.5634 67.7062L21.6155 58.5063L11.9519 68.8203C9.55178 71.3719 9.48862 75.0016 11.7835 77.625L21.8892 89.125C23.5524 91.0117 26.0788 92 28.6263 92C30.3737 92 32.1633 91.5328 33.6791 90.5625C37.4056 88.1906 38.1425 83.6805 35.3634 80.5L29.1737 73.4562ZM59.217 58.5063L46.2691 67.7062L51.6588 73.4562L45.4691 80.5C42.69 83.6805 43.4269 88.1906 47.1534 90.5625C48.6692 91.5328 50.4377 92 52.2062 92C54.7748 92 57.3012 91.0117 58.9434 89.125L69.049 77.625C71.3439 75.0016 71.2807 71.3719 68.8806 68.8203L59.217 58.5063ZM79.3021 26.0547C76.6283 22.8023 71.386 22.0297 67.5753 24.2937L59.0276 29.4148C47.9324 36.0633 32.8791 36.0633 21.8049 29.4148L13.2572 24.3117C9.44652 22.0297 4.20419 22.8203 1.53039 26.0547C-1.1434 29.307 -0.21705 33.7812 3.57258 36.0633L12.1203 41.1844C15.6994 43.3227 19.5733 44.9398 23.5734 46.1977V51.75H57.2591V46.2156C61.2592 44.9578 65.1331 43.3406 68.7122 41.2023L77.2599 36.0812C81.0706 33.7812 81.9759 29.307 79.3021 26.0547Z" fill="#E3B749"/>
</svg>
