<svg width="117" height="92" viewBox="0 0 117 92" fill="none" xmlns="http://www.w3.org/2000/svg">
<path d="M17.551 39.4286C24.0043 39.4286 29.251 33.5348 29.251 26.2857C29.251 19.0366 24.0043 13.1429 17.551 13.1429C11.0977 13.1429 5.85098 19.0366 5.85098 26.2857C5.85098 33.5348 11.0977 39.4286 17.551 39.4286ZM99.451 39.4286C105.904 39.4286 111.151 33.5348 111.151 26.2857C111.151 19.0366 105.904 13.1429 99.451 13.1429C92.9977 13.1429 87.751 19.0366 87.751 26.2857C87.751 33.5348 92.9977 39.4286 99.451 39.4286ZM105.301 46H93.601C90.3835 46 87.4768 47.458 85.3561 49.8196C92.7235 54.358 97.9519 62.5518 99.0854 72.2857H111.151C114.387 72.2857 117.001 69.3491 117.001 65.7143V59.1429C117.001 51.8938 111.754 46 105.301 46ZM58.501 46C69.8171 46 78.976 35.7116 78.976 23C78.976 10.2884 69.8171 0 58.501 0C47.1849 0 38.026 10.2884 38.026 23C38.026 35.7116 47.1849 46 58.501 46ZM72.541 52.5714H71.0236C67.2211 54.625 62.9982 55.8571 58.501 55.8571C54.0038 55.8571 49.7991 54.625 45.9783 52.5714H44.461C32.8341 52.5714 23.401 63.1679 23.401 76.2286V82.1429C23.401 87.5848 27.3314 92 32.176 92H84.826C89.6705 92 93.601 87.5848 93.601 82.1429V76.2286C93.601 63.1679 84.1678 52.5714 72.541 52.5714ZM31.6458 49.8196C29.5252 47.458 26.6185 46 23.401 46H11.701C5.2477 46 0.000976562 51.8938 0.000976562 59.1429V65.7143C0.000976562 69.3491 2.6152 72.2857 5.85098 72.2857H17.8983C19.05 62.5518 24.2785 54.358 31.6458 49.8196Z" fill="#E3B749"/>
</svg>
