<svg width="98" height="92" viewBox="0 0 98 92" fill="none" xmlns="http://www.w3.org/2000/svg">
<path d="M97.8555 46C97.8555 71.4052 75.9501 92 48.9282 92C21.9064 92 0.000976562 71.4052 0.000976562 46C0.000976562 20.5948 21.9064 0 48.9282 0C75.9501 0 97.8555 20.5948 97.8555 46ZM43.2689 70.3566L79.5697 36.2276C80.8024 35.0687 80.8024 33.1896 79.5697 32.0307L75.1057 27.8337C73.8731 26.6746 71.8743 26.6746 70.6415 27.8337L41.0367 55.667L27.215 42.6722C25.9823 41.5133 23.9836 41.5133 22.7508 42.6722L18.2868 46.8692C17.0541 48.0281 17.0541 49.9072 18.2868 51.0661L38.8046 70.3564C40.0375 71.5155 42.036 71.5155 43.2689 70.3566Z" fill="#E3B749"/>
</svg>
