<svg width="116" height="92" viewBox="0 0 116 92" fill="none" xmlns="http://www.w3.org/2000/svg">
<path d="M113.039 63.25H110.141V43.8258C110.141 41.5437 109.217 39.3516 107.586 37.7344L89.4894 19.7836C87.8591 18.1664 85.649 17.25 83.3484 17.25H75.3597V8.625C75.3597 3.86328 71.4649 0 66.6644 0H8.69621C3.89572 0 0.000976562 3.86328 0.000976562 8.625V66.125C0.000976562 70.8867 3.89572 74.75 8.69621 74.75H11.5946C11.5946 84.2734 19.3841 92 28.9851 92C38.5861 92 46.3756 84.2734 46.3756 74.75H69.5628C69.5628 84.2734 77.3523 92 86.9533 92C96.5543 92 104.344 84.2734 104.344 74.75H113.039C114.633 74.75 115.937 73.4563 115.937 71.875V66.125C115.937 64.5437 114.633 63.25 113.039 63.25ZM28.9851 83.375C24.1846 83.375 20.2899 79.5117 20.2899 74.75C20.2899 69.9883 24.1846 66.125 28.9851 66.125C33.7856 66.125 37.6803 69.9883 37.6803 74.75C37.6803 79.5117 33.7856 83.375 28.9851 83.375ZM86.9533 83.375C82.1528 83.375 78.2581 79.5117 78.2581 74.75C78.2581 69.9883 82.1528 66.125 86.9533 66.125C91.7538 66.125 95.6485 69.9883 95.6485 74.75C95.6485 79.5117 91.7538 83.375 86.9533 83.375ZM101.445 46H75.3597V25.875H83.3484L101.445 43.8258V46Z" fill="#E3B749"/>
</svg>
